<svg xmlns="http://www.w3.org/2000/svg" width="144" height="56" fill="none" viewBox="0 0 144 56">
    <rect width="136" height="40" x="4" y="8" fill="#60D170" rx="5"/>
    <path fill="#000" d="M41.002 24.774H45.3v-1.176h-5.74v8.414h.994c2.352 0 3.892-.084 5.642-.42l-.14-1.162c-1.61.294-2.995.364-5.053.378v-6.034zm7-2.352v4.494h-3.388v1.19h3.389v7h1.441V22.422h-1.442zm8.52 3.262c0-1.008.812-1.666 1.932-1.666 1.106 0 1.904.658 1.904 1.666s-.798 1.68-1.904 1.68c-1.12 0-1.932-.672-1.932-1.68zm5.236 0c0-1.666-1.4-2.842-3.304-2.842-1.918 0-3.332 1.176-3.332 2.842 0 1.666 1.414 2.842 3.332 2.842 1.904 0 3.304-1.176 3.304-2.842zm-3.64 6.944h6.72v-3.262h-8.162V30.5h6.734v1.078h-6.706v3.346h8.554v-1.148h-7.14v-1.148zm6.72-7.602v-2.604h-1.442v6.398h1.442v-2.604h1.778v-1.19h-1.778zm6.369 5.964c-1.106 0-1.862-1.19-1.862-3.164 0-1.974.756-3.164 1.862-3.164 1.092 0 1.862 1.19 1.862 3.164 0 1.974-.77 3.164-1.862 3.164zm0-7.63c-1.89 0-3.248 1.736-3.248 4.466 0 2.73 1.358 4.452 3.248 4.452 1.89 0 3.248-1.722 3.248-4.452s-1.358-4.466-3.248-4.466zm8.4 4.018h-1.974v-4.942H76.19v12.656h1.442v-6.524h1.974v-1.19zm3.835-.812h5.992v2.072h-5.992v-2.072zm3.71 5.782V29.8h3.71v-6.524h-1.428v2.128h-5.992v-2.128h-1.428V29.8h3.696v2.548h-4.984v1.19h11.452v-1.19h-5.026zm7.167-8.582v1.176h4.508c-.252 2.912-1.82 5.138-5.138 6.734l.77 1.148c4.34-2.1 5.852-5.292 5.852-9.058h-5.992zm8.274-1.33v12.642h1.442V22.436h-1.442z"/>
</svg>
